<svg width="48" height="25" viewBox="0 0 48 25" fill="none" xmlns="http://www.w3.org/2000/svg">
<path d="M24.0344 23.8345L24.0167 23.8333L23.999 23.8333C23.3374 23.8346 22.6962 23.6043 22.1866 23.1824C22.1863 23.1822 22.186 23.1819 22.1857 23.1817L2.18676 6.51589L2.18627 6.51548C1.60752 6.03445 1.24358 5.34321 1.17448 4.59384C1.10539 3.84447 1.33682 3.09834 1.81785 2.5196C2.29888 1.94086 2.99012 1.57691 3.73949 1.50782C4.48864 1.43875 5.23455 1.67002 5.81321 2.15076C5.81339 2.1509 5.81356 2.15104 5.81373 2.15119L23.6793 17.0836L23.9942 17.3468L24.3138 17.0893L42.1804 2.6893L42.1819 2.68814C42.4717 2.45278 42.8052 2.27703 43.1631 2.17097C43.5211 2.06492 43.8965 2.03065 44.2677 2.07014C44.639 2.10964 44.9987 2.22211 45.3264 2.4011C45.654 2.5801 45.943 2.82208 46.1769 3.11314L46.1848 3.12306L46.1933 3.13255C46.4528 3.42388 46.6493 3.76565 46.7705 4.13647C46.8918 4.50727 46.9351 4.89912 46.8979 5.28747L47.3956 5.3352L46.8979 5.28747C46.8607 5.67582 46.7436 6.05229 46.5541 6.3933C46.3646 6.73431 46.1067 7.03251 45.7966 7.26922L45.7965 7.26909L45.7865 7.27718L25.8031 23.3638C25.282 23.712 24.66 23.8776 24.0344 23.8345Z" fill="#EAEAEA" stroke="black"/>
</svg>
