<svg width="33" height="39" viewBox="0 0 33 39" fill="none" xmlns="http://www.w3.org/2000/svg">
<path d="M32.625 31.0416V32.8333H0.375V31.0416L3.95833 27.4583V16.7083C3.95833 11.1541 7.59542 6.2629 12.9167 4.68623V4.16665C12.9167 3.21629 13.2942 2.30485 13.9662 1.63285C14.6382 0.960842 15.5496 0.583313 16.5 0.583313C17.4504 0.583313 18.3618 0.960842 19.0338 1.63285C19.7058 2.30485 20.0833 3.21629 20.0833 4.16665V4.68623C25.4046 6.2629 29.0417 11.1541 29.0417 16.7083V27.4583L32.625 31.0416ZM20.0833 34.625C20.0833 35.5753 19.7058 36.4868 19.0338 37.1588C18.3618 37.8308 17.4504 38.2083 16.5 38.2083C15.5496 38.2083 14.6382 37.8308 13.9662 37.1588C13.2942 36.4868 12.9167 35.5753 12.9167 34.625" fill="#EAEAEA"/>
</svg>
