<svg width="18" height="36" viewBox="0 0 18 36" fill="none" xmlns="http://www.w3.org/2000/svg">
<path d="M1.4276 17.9674L1.4287 17.9842L1.42867 18.001C1.42779 18.4748 1.58466 18.9308 1.8673 19.2901C1.86746 19.2903 1.86763 19.2906 1.86779 19.2908L13.7419 34.2897L13.7423 34.2902C14.064 34.6976 14.5208 34.9476 15.0086 34.9949C15.4962 35.0422 15.9856 34.8845 16.3694 34.5487C16.7542 34.2121 17.0015 33.723 17.0485 33.1862C17.0955 32.6495 16.9375 32.1186 16.6154 31.7104C16.6153 31.7102 16.6151 31.7101 16.615 31.7099L5.97584 18.311L5.7334 18.0056L5.97042 17.6961L16.2304 4.29607L16.2315 4.29463C16.3891 4.09039 16.5078 3.85403 16.5796 3.59877C16.6515 3.34348 16.6748 3.07527 16.648 2.80987C16.6212 2.54446 16.5448 2.28818 16.4242 2.0558L16.8665 1.82627L16.4242 2.05579C16.3036 1.82345 16.1415 1.6202 15.9483 1.45684L15.9385 1.44857L15.9292 1.4398C15.7355 1.25819 15.5098 1.12209 15.2669 1.03849C15.0241 0.954926 14.7683 0.925243 14.515 0.950802C14.2618 0.976372 14.0151 1.0568 13.7904 1.18825L13.5379 0.756664L13.7903 1.18825C13.5656 1.31974 13.3671 1.49982 13.2084 1.71857L13.2086 1.71866L13.2008 1.72878L1.74251 16.7119C1.51036 17.0798 1.3984 17.5213 1.4276 17.9674Z" fill="#AAAAAA" stroke="black"/>
</svg>
