<svg width="18" height="36" viewBox="0 0 18 36" fill="none" xmlns="http://www.w3.org/2000/svg">
<path d="M16.5026 17.9674L16.5015 17.9842L16.5015 18.001C16.5024 18.4748 16.3455 18.9308 16.0629 19.2901C16.0627 19.2903 16.0626 19.2906 16.0624 19.2908L4.18824 34.2897L4.18784 34.2902C3.86613 34.6976 3.4094 34.9476 2.92153 34.9949C2.43399 35.0422 1.94453 34.8845 1.56074 34.5487C1.17599 34.2121 0.928694 33.723 0.881678 33.1862C0.834669 32.6495 0.992668 32.1186 1.3148 31.7104C1.31492 31.7102 1.31505 31.7101 1.31517 31.7099L11.9543 18.311L12.1968 18.0056L11.9598 17.6961L1.69976 4.29607L1.69864 4.29463C1.54108 4.09039 1.4224 3.85403 1.35055 3.59877C1.2787 3.34348 1.25538 3.07527 1.2822 2.80987C1.30902 2.54446 1.38534 2.28818 1.50595 2.0558L1.0637 1.82627L1.50595 2.05579C1.62654 1.82345 1.78867 1.6202 1.98186 1.45684L1.99164 1.44857L2.00099 1.4398C2.1947 1.25819 2.42037 1.12209 2.66325 1.03849C2.90604 0.954926 3.16188 0.925243 3.41513 0.950802C3.6684 0.976372 3.91511 1.0568 4.13982 1.18825L4.39228 0.756664L4.13983 1.18825C4.36462 1.31974 4.56311 1.49982 4.72173 1.71857L4.7216 1.71866L4.72934 1.72878L16.1877 16.7119C16.4198 17.0798 16.5318 17.5213 16.5026 17.9674Z" fill="#AAAAAA" stroke="black"/>
</svg>
