<svg width="53" height="49" viewBox="0 0 53 49" fill="none" xmlns="http://www.w3.org/2000/svg">
<path d="M47.875 10.25H29.8487L37.6625 2.43625L36 0.75L26.5 10.25L17 0.75L15.3138 2.43625L23.1513 10.25H5.125C3.86522 10.25 2.65704 10.7504 1.76624 11.6412C0.875445 12.532 0.375 13.7402 0.375 15V43.5C0.375 46.1125 2.5125 48.25 5.125 48.25H47.875C50.4875 48.25 52.625 46.1125 52.625 43.5V15C52.625 13.7402 52.1246 12.532 51.2338 11.6412C50.343 10.7504 49.1348 10.25 47.875 10.25ZM47.875 43.5H5.125V15H47.875V43.5ZM19.375 19.75V38.75L36 29.25L19.375 19.75Z" fill="#EAEAEA"/>
</svg>
