<svg width="39" height="49" viewBox="0 0 39 49" fill="none" xmlns="http://www.w3.org/2000/svg">
<path d="M31.375 10.3925C29.7279 10.3936 28.132 10.9653 26.8589 12.0105C25.5858 13.0556 24.7141 14.5095 24.3922 16.1248C24.0702 17.7402 24.3179 19.4172 25.093 20.8705C25.8682 22.3239 27.1229 23.4638 28.6438 24.0963C28.2822 24.963 27.6718 25.7031 26.8898 26.223C26.1078 26.743 25.1891 27.0195 24.25 27.0175H14.75C13.0757 27.0245 11.4345 27.4841 10 28.3475V14.715C11.5846 14.1548 12.9202 13.0523 13.7706 11.6026C14.6211 10.1529 14.9316 8.4492 14.6474 6.79265C14.3632 5.13609 13.5025 3.63335 12.2175 2.55001C10.9324 1.46667 9.30577 0.872498 7.62501 0.872498C5.94426 0.872498 4.31761 1.46667 3.03257 2.55001C1.74753 3.63335 0.886844 5.13609 0.602625 6.79265C0.318406 8.4492 0.628956 10.1529 1.47939 11.6026C2.32982 13.0523 3.66538 14.1548 5.25001 14.715V34.57C3.68486 35.1329 2.36595 36.2256 1.52186 37.6588C0.677764 39.092 0.361679 40.7753 0.628381 42.4171C0.895084 44.0589 1.72777 45.5556 2.98212 46.6479C4.23648 47.7402 5.83346 48.3592 7.4963 48.3977C9.15915 48.4362 10.7831 47.8917 12.0866 46.8586C13.3902 45.8256 14.2912 44.369 14.6336 42.7413C14.976 41.1136 14.7381 39.4175 13.9613 37.9467C13.1844 36.476 11.9174 35.3235 10.38 34.6888C10.74 33.8258 11.3467 33.0882 12.1241 32.5686C12.9015 32.0489 13.8149 31.7702 14.75 31.7675H24.25C26.4227 31.7671 28.5297 31.0219 30.2195 29.6562C31.9093 28.2905 33.08 26.3868 33.5363 24.2625C35.1241 23.723 36.4708 22.6406 37.3393 21.206C38.2077 19.7714 38.5423 18.0763 38.2841 16.4193C38.0259 14.7623 37.1915 13.2494 35.9277 12.147C34.6639 11.0446 33.0518 10.4233 31.375 10.3925ZM7.62501 5.64251C8.09475 5.64251 8.55393 5.7818 8.94449 6.04277C9.33506 6.30374 9.63947 6.67466 9.81923 7.10864C9.99899 7.54261 10.046 8.02015 9.95438 8.48085C9.86274 8.94156 9.63654 9.36474 9.30439 9.69689C8.97224 10.029 8.54906 10.2552 8.08835 10.3469C7.62765 10.4385 7.15012 10.3915 6.71614 10.2117C6.28217 10.032 5.91124 9.72756 5.65027 9.33699C5.38931 8.94642 5.25001 8.48724 5.25001 8.01751C5.25001 7.38762 5.50024 6.78353 5.94564 6.33813C6.39104 5.89274 6.99513 5.64251 7.62501 5.64251ZM7.62501 43.6425C7.15528 43.6425 6.6961 43.5032 6.30554 43.2423C5.91497 42.9813 5.61056 42.6104 5.4308 42.1764C5.25104 41.7424 5.20401 41.2649 5.29565 40.8042C5.38729 40.3435 5.61349 39.9203 5.94564 39.5881C6.27779 39.256 6.70097 39.0298 7.16168 38.9381C7.62238 38.8465 8.09991 38.8935 8.53389 39.0733C8.96786 39.2531 9.33879 39.5575 9.59976 39.948C9.86072 40.3386 10 40.7978 10 41.2675C10 41.8974 9.74979 42.5015 9.30439 42.9469C8.85899 43.3923 8.2549 43.6425 7.62501 43.6425ZM31.375 19.8925C30.9053 19.8925 30.4461 19.7532 30.0555 19.4923C29.665 19.2313 29.3606 18.8604 29.1808 18.4264C29.001 17.9924 28.954 17.5149 29.0457 17.0542C29.1373 16.5935 29.3635 16.1703 29.6956 15.8381C30.0278 15.506 30.451 15.2798 30.9117 15.1881C31.3724 15.0965 31.8499 15.1435 32.2839 15.3233C32.7179 15.5031 33.0888 15.8075 33.3498 16.198C33.6107 16.5886 33.75 17.0478 33.75 17.5175C33.75 18.1474 33.4998 18.7515 33.0544 19.1969C32.609 19.6423 32.0049 19.8925 31.375 19.8925Z" fill="#EAEAEA"/>
</svg>
