<svg width="43" height="43" viewBox="0 0 43 43" fill="none" xmlns="http://www.w3.org/2000/svg">
<path d="M4.875 0.125C2.23875 0.125 0.125 2.23875 0.125 4.875V38.125C0.125 39.3848 0.625445 40.593 1.51624 41.4838C2.40704 42.3746 3.61522 42.875 4.875 42.875H38.125C39.3848 42.875 40.593 42.3746 41.4838 41.4838C42.3746 40.593 42.875 39.3848 42.875 38.125V4.875C42.875 3.61522 42.3746 2.40704 41.4838 1.51624C40.593 0.625445 39.3848 0.125 38.125 0.125H4.875ZM30.4775 4.875H38.125V33.8025C37.5075 31.9025 35.0137 30.5012 32.9 30.5012H30.525V23.3762C30.525 22.7464 30.2748 22.1423 29.8294 21.6969C29.384 21.2515 28.7799 21.0012 28.15 21.0012H13.9V16.2512H18.65C19.2799 16.2512 19.884 16.001 20.3294 15.5556C20.7748 15.1102 21.025 14.5061 21.025 13.8763V9.12625H25.775C28.2213 9.12625 30.2162 7.25 30.4775 4.875ZM4.875 17.4387L16.275 28.1262V30.5012C16.275 31.761 16.7754 32.9692 17.6662 33.86C18.557 34.7508 19.7652 35.2513 21.025 35.2513V38.125H4.875V17.4387Z" fill="#EAEAEA"/>
</svg>
