<svg width="36" height="26" viewBox="0 0 36 26" fill="none" xmlns="http://www.w3.org/2000/svg">
<path d="M22.7499 16.1666C18.5224 16.1666 10.0833 18.2725 10.0833 22.5V25.6666H35.4166V22.5C35.4166 18.2725 26.9774 16.1666 22.7499 16.1666ZM8.49992 9.83331V5.08331H5.33325V9.83331H0.583252V13H5.33325V17.75H8.49992V13H13.2499V9.83331M22.7499 13C24.4296 13 26.0405 12.3327 27.2283 11.145C28.416 9.95726 29.0833 8.34635 29.0833 6.66665C29.0833 4.98694 28.416 3.37603 27.2283 2.1883C26.0405 1.00057 24.4296 0.333313 22.7499 0.333313C21.0702 0.333313 19.4593 1.00057 18.2716 2.1883C17.0838 3.37603 16.4166 4.98694 16.4166 6.66665C16.4166 8.34635 17.0838 9.95726 18.2716 11.145C19.4593 12.3327 21.0702 13 22.7499 13Z" fill="white"/>
</svg>
